<svg fill="none" height="22" viewBox="0 0 134 22" width="134" xmlns="http://www.w3.org/2000/svg"><path d="m6.84052 19.1584v-11.42479l-6.33991 1.69899v.26379c1.49007-.14662 2.24964 1.02541 2.24964 2.84161v6.6204c0 1.8457-.75957 2.5778-2.24964 2.5778v.2638h8.6186v-.2638c-1.48975 0-2.27869-.7321-2.27869-2.5778zm9.40718 0v-5.8294c0-4.36509-2.0449-5.59539-5.4922-5.59539-.5846 0-1.16887.17576-1.16887.17576v.26379c1.57787-.38097 2.57117-.23433 2.57117 3.54464v7.4406c0 1.8457-.7596 2.5778-2.27903 2.5778v.2638h8.64793v-.2638c-1.49 0-2.279-.7321-2.279-2.5778zm9.4076 0v-5.8294c0-4.36509-2.045-5.59539-5.4926-5.59539-.5843 0-1.1685.17576-1.1685.17576v.26379c1.5775-.38097 2.5708-.23433 2.5708 3.54464v7.4406c0 1.8457-.7886 2.5778-2.2787 2.5778v.2638h8.6477v-.2638c-1.4898 0-2.2787-.7321-2.2787-2.5778zm4.2097 2.5778v.2638h8.6186v-.2638c-1.4901 0-2.2496-.7321-2.2496-2.5778v-11.42479l-6.369 1.69899v.26379c1.4901-.14662 2.2787 1.02541 2.2787 2.84161v6.6204c0 1.8457-.7886 2.5778-2.2787 2.5778zm4.324-16.60981c1.4023 0 2.5418-1.14225 2.5418-2.54863 0-1.43518-1.1395-2.57776-2.5418-2.57776-1.4316 0-2.5712 1.14258-2.5712 2.57776 0 1.40638 1.1396 2.54863 2.5712 2.54863zm15.2415 15.61381c-3.2429 0-5.1713-3.0758-5.1713-7.4406 0-1.9042.4677-5.30219 2.3664-5.30219v-.2638c-3.8562 0-6.7485 3.39829-6.7485 7.14779 0 4.658 3.7393 7.1186 7.6253 7.1186 3.5935 0 4.9664-2.2557 4.9664-2.2557l-.2044-.1758s-1.0811 1.1717-2.8339 1.1717zm.8471-7.9093c1.1395 0 2.0453-.9374 2.0453-2.0505 0-1.1426-.9058-2.05083-2.0453-2.05083-1.1392 0-2.045.90823-2.045 2.05083 0 1.1131.9058 2.0505 2.045 2.0505zm9.0158 6.1223c0-2.6069.7596-4.2767 1.9865-5.0092v-.2635c-2.1327.4101-6.398 2.2263-6.398 5.3022 0 2.1091 1.1686 3.0173 3.7394 3.0173h2.8049v-.2638c-.8474 0-2.1328-.703-2.1328-2.783zm-1.8991-5.9757c1.0517 0 1.8991-.8496 1.8991-1.9042 0-1.0545-.8474-1.90417-1.8991-1.90417s-1.9281.84967-1.9281 1.90417c0 1.0546.8764 1.9042 1.9281 1.9042zm10.1671 7.9094c-.4093 0-.6721-.3224-.6721-1.0254v-5.7709c0-3.1639-1.2854-6.35699-6.4858-6.35699v.2638s2.3956 0 2.3956 4.56969v6.2398c0 2.4606 1.6947 3.1931 3.0092 3.1931 2.279 0 2.5417-1.406 2.5417-1.406l-.2337-.0881s-.2043.381-.5549.381zm16.7603-1.7285v-18.924057l-6.3689 1.728437v.23434c1.49-.14662 2.2787 1.02508 2.2787 2.84156v16.96132h6.3399v-.2638c-1.4901 0-2.2497-.7321-2.2497-2.5778zm-14.257-4.277c0 4.3648 3.3013 7.1186 6.7779 7.1186.5843 0 .9349-.088.9349-.088v-.2635c-2.1912.2635-3.3307-2.6658-3.3307-6.7671 0-4.1305 1.1395-7.05974 3.3307-6.79627v-.26347s-.3506-.08805-.9349-.08805c-3.4766 0-6.7779 2.75389-6.7779 7.14779zm26.5272-7.11833v.35151c1.7528.61499 2.454 3.16362 2.454 6.76682 0 3.574-.7012 6.1226-2.454 6.7376v.3515c3.7691-.3515 6.8361-3.0173 6.8361-7.0891 0-4.101-3.067-6.76682-6.8361-7.11833zm-8.5892 7.11833c0 4.0718 3.0676 6.7376 6.8654 7.0891v-.3515c-1.7822-.615-2.4833-3.1636-2.4833-6.7376 0-3.6032.7011-6.15183 2.4833-6.76682v-.35151c-3.7978.35151-6.8654 3.01733-6.8654 7.11833zm23.3283 4.277v-11.42479l-6.369 1.69899v.26379c1.49-.14662 2.279 1.02541 2.279 2.84161v6.6204c-.03 1.8457-.789 2.5778-2.279 2.5778v.2638h8.618v-.2638c-1.49 0-2.249-.7321-2.249-2.5778zm9.378 0v-5.8294c0-4.36509-2.016-5.59539-5.493-5.59539-.584 0-1.168.17576-1.168.17576v.26379c1.578-.38097 2.571-.23433 2.571 3.54464v7.4406c0 1.8457-.76 2.5778-2.25 2.5778v.2638h8.619v-.2638c-1.49 0-2.279-.7321-2.279-2.5778zm4.177 2.5778v.2638h8.619v-.2638c-1.49 0-2.25-.7321-2.25-2.5778v-11.42479l-6.369 1.69899v.26379c1.49-.14662 2.279 1.02541 2.279 2.84161v6.6204c0 1.8457-.789 2.5778-2.279 2.5778zm4.324-16.60981c1.403 0 2.542-1.14225 2.542-2.54863 0-1.43518-1.139-2.57776-2.542-2.57776-1.431 0-2.571 1.14258-2.571 2.57776 0 1.40638 1.14 2.54863 2.571 2.54863z" fill="#151515"/></svg>